<svg width="317" height="307" viewBox="0 0 317 307" fill="none" xmlns="http://www.w3.org/2000/svg">
<circle cx="162.723" cy="153.5" r="153.5" fill="#F2F6E8"/>
<mask id="mask0_7154_60809" style="mask-type:alpha" maskUnits="userSpaceOnUse" x="9" y="0" width="308" height="307">
<circle cx="162.723" cy="153.5" r="153.5" fill="#C4C4C4"/>
</mask>
<g mask="url(#mask0_7154_60809)">
<path d="M98.7188 309.796V202.085H115.63V157.46H136.387V202.854H141.511V182.851H155.859V202.598H176.103V240.552H189.426V226.191L206.594 209.01V225.935H216.844V177.208H238.111V309.796H98.7188Z" fill="#DCDCDC"/>
<path d="M-35.7959 309.796V202.085H-18.8874V157.46H1.86937V202.854H6.99286V182.851H21.3412V202.598H41.5853V240.552H54.9083V226.191L72.0764 209.01V225.935H82.3266V177.208H103.593V309.796H-35.7959Z" fill="#DCDCDC"/>
<path d="M233.383 309.796V202.085H250.295V157.46H271.049V202.854H276.175V182.851H290.524V202.598H310.768V240.552H324.091V226.191L341.259 209.01V225.935H351.509V177.208H372.775V309.796H233.383Z" fill="#DCDCDC"/>
</g>
<path d="M36.7704 187.56C38.3309 186.784 39.9171 186.046 41.4914 185.368L41.2101 184.715C39.6243 185.396 38.0242 186.138 36.4551 186.923L36.7704 187.56Z" fill="#81A714"/>
<path d="M18.751 198.108L19.1837 198.67C20.5694 197.604 21.9815 196.565 23.3789 195.582L22.9709 194.999C21.5675 195.989 20.1454 197.033 18.751 198.108Z" fill="#81A714"/>
<path d="M27.331 192.086L27.7114 192.685C29.188 191.746 30.6828 190.85 32.1754 190.003L31.8236 189.384C30.3224 190.24 28.8176 191.141 27.331 192.086Z" fill="#81A714"/>
<path d="M3.17057 212.097L3.6782 212.592C4.9031 211.335 6.1446 210.094 7.37135 208.909L6.87837 208.398C5.64806 209.589 4.39903 210.834 3.17057 212.097Z" fill="#81A714"/>
<path d="M10.7075 204.823L11.1833 205.35C12.4848 204.179 13.8083 203.027 15.1196 201.93L14.6634 201.385C13.3461 202.489 12.015 203.644 10.7075 204.823Z" fill="#81A714"/>
<path d="M213.318 85.3904C214.887 84.6691 216.499 83.9867 218.109 83.3588L217.849 82.6965C216.225 83.3291 214.601 84.0188 213.02 84.7434L213.318 85.3904Z" fill="#81A714"/>
<path d="M203.771 89.6822L204.141 90.2871C205.605 89.3894 207.125 88.5194 208.658 87.7017L208.325 87.075C206.779 87.9 205.247 88.7772 203.771 89.6822Z" fill="#81A714"/>
<path d="M223.011 81.6133C224.657 81.0819 226.34 80.5922 228.007 80.1618L227.83 79.475C226.146 79.9115 224.45 80.402 222.791 80.9382L223.011 81.6133Z" fill="#81A714"/>
<path d="M195.178 95.6949L195.62 96.2513C196.969 95.1791 198.371 94.1335 199.788 93.1388L199.38 92.5556C197.95 93.5575 196.535 94.6143 195.178 95.6949Z" fill="#81A714"/>
<path d="M175.603 118.419C175.387 118.802 175.174 119.186 174.963 119.572L175.586 119.914C175.796 119.531 176.006 119.149 176.221 118.77C176.855 117.647 177.53 116.524 178.225 115.432L177.626 115.05C176.926 116.151 176.244 117.285 175.603 118.419Z" fill="#81A714"/>
<path d="M187.399 102.731L187.909 103.225C189.108 101.992 190.368 100.778 191.652 99.6161L191.176 99.0889C189.878 100.262 188.607 101.486 187.399 102.731Z" fill="#81A714"/>
<path d="M233.082 79.0127C234.783 78.6802 236.51 78.3992 238.218 78.1725L238.124 77.4676C236.403 77.6951 234.659 77.9823 232.946 78.3156L233.082 79.0127Z" fill="#81A714"/>
<path d="M180.604 110.722L181.174 111.145C182.196 109.764 183.283 108.395 184.407 107.072L183.867 106.612C182.733 107.948 181.634 109.33 180.604 110.722Z" fill="#81A714"/>
<path d="M284.655 79.3371L284.859 80.0184C286.516 79.5239 288.07 78.8579 289.48 78.0413C289.56 77.9949 289.64 77.9485 289.717 77.901L289.351 77.2932C287.917 78.1437 286.349 78.8312 284.655 79.3371Z" fill="#81A714"/>
<path d="M274.375 81.0388C276.162 81.1718 277.94 81.1587 279.658 81.0002L279.592 80.2922C277.909 80.4473 276.17 80.458 274.425 80.3277L274.375 81.0388Z" fill="#81A714"/>
<path d="M296.287 69.9111C295.46 71.4635 294.465 72.8694 293.33 74.0854L293.848 74.5711C295.03 73.3081 296.06 71.8521 296.916 70.246L296.287 69.9111Z" fill="#81A714"/>
<path d="M243.396 77.6485C245.122 77.5284 246.873 77.4612 248.593 77.4517L248.59 76.7412C246.853 76.7505 245.089 76.8184 243.346 76.9383L243.396 77.6485Z" fill="#81A714"/>
<path d="M264.108 78.8997C265.808 79.2363 267.513 79.6336 269.171 80.0819L269.356 79.3962C267.681 78.9412 265.96 78.5397 264.243 78.2028L264.108 78.8997Z" fill="#81A714"/>
<path d="M253.794 77.5906C255.525 77.692 257.268 77.8535 258.972 78.0706L259.063 77.3661C257.341 77.1487 255.585 76.9854 253.835 76.8813L253.794 77.5906Z" fill="#81A714"/>
<path d="M87.3457 176.551L87.3724 177.261C88.3027 177.228 89.2331 177.194 90.1635 177.16L92.5974 177.072L92.5707 176.362L90.1368 176.45C89.205 176.481 88.2746 176.515 87.3457 176.551Z" fill="#81A714"/>
<path d="M118.653 174.824C120.409 174.516 122.139 174.166 123.793 173.787L123.632 173.094C121.988 173.471 120.271 173.817 118.529 174.123L118.653 174.824Z" fill="#81A714"/>
<path d="M97.8196 176.861C99.7323 176.774 101.442 176.683 103.046 176.581L102.999 175.872C101.401 175.971 99.6952 176.063 97.7865 176.151L97.8196 176.861Z" fill="#81A714"/>
<path d="M108.265 176.186C110.041 176.024 111.793 175.832 113.472 175.613L113.378 174.908C111.706 175.127 109.963 175.317 108.197 175.48L108.265 176.186Z" fill="#81A714"/>
<path d="M56.3023 180.51C57.943 180.132 59.661 179.789 61.4048 179.485L61.2841 178.786C59.5249 179.092 57.7953 179.438 56.1418 179.817L56.3023 180.51Z" fill="#81A714"/>
<path d="M66.5568 178.716C68.2013 178.506 69.9443 178.316 71.737 178.154L71.6715 177.446C69.8674 177.611 68.1165 177.799 66.463 178.011L66.5568 178.716Z" fill="#81A714"/>
<path d="M76.9421 177.756C78.5478 177.652 80.2515 177.562 82.1538 177.474L82.1206 176.764C80.2144 176.851 78.5057 176.944 76.8961 177.047L76.9421 177.756Z" fill="#81A714"/>
<path d="M166.023 138.49L166.667 138.793C167.437 137.16 168.169 135.542 168.848 134.034L168.2 133.741C167.521 135.248 166.79 136.862 166.023 138.49Z" fill="#81A714"/>
<path d="M128.873 172.467C130.584 171.968 132.261 171.415 133.86 170.827L133.614 170.16C132.031 170.742 130.367 171.287 128.674 171.783L128.873 172.467Z" fill="#81A714"/>
<path d="M155.129 156.122L155.66 156.594C156.786 155.327 157.889 153.945 158.938 152.482L158.36 152.067C157.323 153.511 156.237 154.875 155.129 156.122Z" fill="#81A714"/>
<path d="M170.349 128.978L170.995 129.273C171.836 127.428 172.539 125.927 173.209 124.549L172.57 124.237C171.896 125.62 171.19 127.127 170.349 128.978Z" fill="#81A714"/>
<path d="M161.199 147.717L161.809 148.083C162.658 146.662 163.49 145.163 164.354 143.496L163.723 143.169C162.863 144.821 162.04 146.31 161.199 147.717Z" fill="#81A714"/>
<path d="M147.411 163.021L147.822 163.598C149.264 162.57 150.648 161.467 151.937 160.319L151.464 159.791C150.195 160.92 148.831 162.008 147.411 163.021Z" fill="#81A714"/>
<path d="M138.717 168.831C140.334 168.089 141.907 167.282 143.392 166.432L143.037 165.814C141.57 166.654 140.017 167.449 138.417 168.185L138.717 168.831Z" fill="#81A714"/>
<path d="M279.215 74.5768L286.945 85.2447L308.545 55.914L279.215 74.5768Z" fill="#D0E2C3"/>
<path d="M286.91 85.2258L293.925 76.1507L285.989 74.2715L284.096 75.8131L286.91 85.2258Z" fill="#9FB78B"/>
<path d="M270.499 71.7168L308.584 55.9237L279.2 74.6383L270.499 71.7168Z" fill="#9FB78B"/>
<path d="M284.142 75.82L297.906 80.6324L308.555 55.917L284.142 75.82Z" fill="#9FB78B"/>
<path d="M161.936 306.867C222.1 306.867 270.872 305.228 270.872 303.206C270.872 301.183 222.1 299.544 161.936 299.544C101.772 299.544 53 301.183 53 303.206C53 305.228 101.772 306.867 161.936 306.867Z" fill="#EEEEEE"/>
<path d="M110.893 186.695H103.979C102.69 186.695 101.65 187.74 101.65 189.024V193.345C101.65 194.634 102.695 195.674 103.979 195.674H109.575V193.955C111.259 193.955 112.88 193.286 114.071 192.095L114.911 191.255L110.893 186.695Z" fill="#EBA58E"/>
<path d="M110.891 186.694L114.909 191.25L132.169 187.241L129.781 180.855L110.891 186.694Z" fill="#EBA58E"/>
<path d="M129.783 180.855L128.938 181.114L128.669 188.052L132.17 187.241L129.783 180.855Z" fill="#DD8C76"/>
<path d="M162.83 156.155C160.555 154.368 157.274 154.691 155.384 156.878L137.481 177.648L134.244 178.736L137.251 186.778L138.95 186.412C141.636 185.831 144.087 184.454 145.981 182.462L163.411 164.148C165.613 161.838 165.345 158.128 162.83 156.155Z" fill="#9FB78B"/>
<path d="M137.351 187.037L137.253 186.783L134.246 178.742L133.948 177.946C133.777 177.492 133.269 177.258 132.815 177.428L129.857 178.537C129.403 178.708 129.168 179.215 129.339 179.67L129.578 180.314L132.391 187.833L132.737 188.761C132.908 189.215 133.416 189.449 133.87 189.278L136.829 188.17C137.288 187.999 137.522 187.491 137.351 187.037Z" fill="#809B68"/>
<path d="M156.519 157.747C158.184 155.814 160.962 155.296 163.212 156.492C163.09 156.375 162.963 156.263 162.827 156.155C160.551 154.368 157.271 154.691 155.381 156.878L137.477 177.648L134.24 178.736L134.724 180.025L138.356 178.8L156.519 157.747Z" fill="#D0E2C3"/>
<path d="M156.602 199.375L119.286 209.306C112.836 211.025 109.824 218.441 113.261 224.168L135.012 260.44L147.125 255.064L129.72 221.966L165.166 214.56C172.021 213.124 176.063 205.996 173.764 199.38H156.602V199.375Z" fill="#36454A"/>
<path d="M145.555 257.54L144.647 256.163L137.763 259.214L139.384 262.163L147.054 260.01C146.585 259.17 146.087 258.345 145.555 257.54Z" fill="#E6B492"/>
<path d="M143.664 263.476L143.025 265.107L143.879 264.506C144.216 264.267 144.621 264.14 145.036 264.14H149.054C148.468 262.724 147.804 261.347 147.053 260.01L139.382 262.163L139.846 263.007H143.342C143.586 263.007 143.752 263.252 143.664 263.476Z" fill="#F2C9AD"/>
<path d="M134.843 270.508H151.101L150.803 269.36C150.344 267.578 149.753 265.84 149.05 264.146H145.032C144.617 264.146 144.212 264.273 143.875 264.512L143.021 265.113L143.66 263.482C143.748 263.257 143.582 263.013 143.338 263.013H139.842L137.259 265.44C136.088 266.538 134.545 267.154 132.938 267.154H131.176C129.452 267.154 127.949 268.115 127.172 269.536L130.527 270.132C131.957 270.381 133.397 270.508 134.843 270.508Z" fill="#36454A"/>
<path d="M134.842 270.507C133.397 270.507 131.957 270.381 130.531 270.127L127.177 269.531C126.85 270.132 126.649 270.82 126.62 271.547L131.742 272.011C132.552 272.085 133.363 272.124 134.178 272.124H151.511L151.096 270.507H134.842Z" fill="white"/>
<path d="M144.647 256.163L137.763 259.214L138.51 260.567L146.004 258.233L144.647 256.163Z" fill="#36454A"/>
<path d="M99.0241 196.031H97.2616L92.7258 212.07C89.1763 224.627 90.6166 238.054 96.7147 249.562L98.9265 250.397L99.0241 196.031Z" fill="#896C4C"/>
<path d="M92.7308 212.076L97.2665 196.037H95.6163L86.3104 230.58C85.4706 233.69 82.6535 235.853 79.4311 235.853C79.187 235.853 78.9917 236.048 78.9917 236.293V242.884L96.7246 249.568C90.6167 238.06 89.1813 224.629 92.7308 212.076Z" fill="#DAAA78"/>
<path d="M77.7723 302.345C91.4542 302.345 102.546 291.254 102.546 277.572C102.546 263.89 91.4542 252.798 77.7723 252.798C64.0904 252.798 52.999 263.89 52.999 277.572C52.999 291.254 64.0904 302.345 77.7723 302.345Z" fill="#4B4B4B"/>
<path d="M77.4462 295.678C87.2992 295.678 95.2865 287.691 95.2865 277.838C95.2865 267.985 87.2992 259.998 77.4462 259.998C67.5933 259.998 59.606 267.985 59.606 277.838C59.606 287.691 67.5933 295.678 77.4462 295.678Z" fill="white"/>
<path d="M77.9626 290.837C85.2624 290.837 91.18 284.919 91.18 277.62C91.18 270.32 85.2624 264.402 77.9626 264.402C70.6628 264.402 64.7451 270.32 64.7451 277.62C64.7451 284.919 70.6628 290.837 77.9626 290.837Z" fill="#DEE8CB"/>
<path d="M80.8453 280.649C82.5441 278.951 82.5441 276.196 80.8453 274.497C79.1464 272.798 76.3921 272.798 74.6932 274.497C72.9944 276.196 72.9944 278.951 74.6932 280.649C76.3921 282.348 79.1464 282.348 80.8453 280.649Z" fill="white"/>
<path d="M205.028 302.346C218.71 302.346 229.801 291.254 229.801 277.572C229.801 263.891 218.71 252.799 205.028 252.799C191.346 252.799 180.255 263.891 180.255 277.572C180.255 291.254 191.346 302.346 205.028 302.346Z" fill="#4B4B4B"/>
<path d="M205.214 295.677C215.067 295.677 223.055 287.69 223.055 277.837C223.055 267.984 215.067 259.996 205.214 259.996C195.361 259.996 187.374 267.984 187.374 277.837C187.374 287.69 195.361 295.677 205.214 295.677Z" fill="white"/>
<path d="M204.996 290.837C212.296 290.837 218.214 284.919 218.214 277.62C218.214 270.32 212.296 264.402 204.996 264.402C197.696 264.402 191.779 270.32 191.779 277.62C191.779 284.919 197.696 290.837 204.996 290.837Z" fill="#DEE8CB"/>
<path d="M208.1 280.651C209.799 278.952 209.799 276.198 208.1 274.499C206.401 272.8 203.647 272.8 201.948 274.499C200.249 276.198 200.249 278.952 201.948 280.651C203.647 282.35 206.401 282.35 208.1 280.651Z" fill="white"/>
<path d="M78.9644 244.762C91.727 245.163 102.639 254.097 106.032 266.401L106.584 268.403L107.185 268.696L106.032 264.526C102.639 252.218 91.7221 243.288 78.9644 242.887C78.6373 242.878 78.3053 242.873 77.9733 242.873C72.4806 242.873 67.2125 244.303 62.5791 246.979L63.4238 248.385C67.8472 246.012 72.8126 244.748 77.9733 244.748C78.3053 244.743 78.6373 244.748 78.9644 244.762Z" fill="white"/>
<path d="M81.1067 255.972C81.2302 255.972 81.352 256.001 81.4628 256.055L104.974 267.611C105.599 267.918 106.293 267.343 106.108 266.672L106.034 266.401C102.64 254.093 91.7232 245.163 78.9655 244.762C78.6384 244.753 78.3064 244.748 77.9744 244.748C73.1037 244.748 68.407 245.874 64.1757 247.996C63.7639 248.202 63.6227 248.716 63.8592 249.111L67.7304 255.58C67.8762 255.823 68.1392 255.972 68.423 255.972H81.1067Z" fill="#EEDBBD"/>
<path d="M107.59 269.329C107.933 269.866 107.547 270.57 106.91 270.57H96.5614C91.2493 270.57 86.1521 268.461 82.3926 264.701C78.6332 260.942 73.536 258.833 68.2239 258.833H56.1552C55.4361 258.833 55.0759 257.963 55.5844 257.455L58.6398 254.4C63.7663 249.273 70.7188 246.392 77.9692 246.392C87.3092 246.392 95.9999 251.158 101.024 259.033L107.59 269.329Z" fill="#DAAA78"/>
<path d="M99.0262 196.03L94.4905 212.069C90.8531 224.929 92.4496 238.707 98.9286 250.396L101.194 254.482C107.605 266.044 119.781 273.221 133.003 273.221H244.595L240.596 258.711C236.651 244.395 227.448 232.102 214.822 224.29L207.596 219.817H145.516V222.527C145.516 224.329 146.664 225.93 148.373 226.501C155.013 228.738 159.783 234.592 160.632 241.549C161.96 252.403 153.489 261.972 142.553 261.972H133.476C124.776 261.972 116.676 257.524 112.013 250.176L107.805 243.551C103.162 236.242 101.575 227.405 103.381 218.939L108.269 196.03H99.0262Z" fill="#DAAA78"/>
<path d="M207.595 219.819H140.501V211.856H194.002C197.723 211.856 201.287 213.36 203.884 216.021L207.595 219.819Z" fill="#4A4A4A"/>
<path d="M168.589 274.322H138.465C124.848 274.322 112.29 266.925 105.694 255.017L103.428 250.93C96.764 238.905 95.1528 225 98.8927 211.773C100.094 207.516 99.5372 202.868 97.3596 199.02C97.0618 198.493 97.2473 197.819 97.7746 197.521C98.3068 197.224 98.9757 197.409 99.2735 197.936C101.739 202.296 102.369 207.555 101.007 212.374C97.428 225.039 98.966 238.353 105.347 249.866L107.613 253.952C113.823 265.162 125.643 272.125 138.46 272.125H168.584C169.194 272.125 169.687 272.618 169.687 273.228C169.687 273.833 169.194 274.322 168.589 274.322Z" fill="#EEDBBD"/>
<path d="M211.955 242.602C206.755 239.443 200.784 237.769 194.696 237.769H192.655C182.285 237.769 173.497 246.25 173.501 256.62C173.506 261.317 175.23 265.613 178.081 268.909H192.338H206.594H228.624L226.685 262.015C224.41 253.91 219.147 246.972 211.955 242.602Z" fill="#EEDBBD"/>
<g style="mix-blend-mode:multiply" opacity="0.2">
<path d="M212.269 265.108H189.034C188.668 265.108 188.375 264.81 188.375 264.448C188.375 264.087 188.673 263.789 189.034 263.789H212.269C212.636 263.789 212.929 264.087 212.929 264.448C212.929 264.81 212.631 265.108 212.269 265.108Z" fill="#896C4C"/>
<path d="M211.554 262.492H188.318C187.952 262.492 187.659 262.194 187.659 261.832C187.659 261.466 187.957 261.173 188.318 261.173H211.554C211.92 261.173 212.213 261.471 212.213 261.832C212.213 262.199 211.92 262.492 211.554 262.492Z" fill="#896C4C"/>
<path d="M210.833 259.88H187.598C187.232 259.88 186.939 259.583 186.939 259.221C186.939 258.855 187.237 258.562 187.598 258.562H210.833C211.2 258.562 211.493 258.86 211.493 259.221C211.497 259.583 211.2 259.88 210.833 259.88Z" fill="#896C4C"/>
<path d="M210.122 257.261H186.887C186.52 257.261 186.228 256.964 186.228 256.602C186.228 256.241 186.525 255.943 186.887 255.943H210.122C210.488 255.943 210.781 256.241 210.781 256.602C210.781 256.964 210.483 257.261 210.122 257.261Z" fill="#896C4C"/>
<path d="M209.406 254.644H186.171C185.805 254.644 185.512 254.347 185.512 253.985C185.512 253.619 185.81 253.326 186.171 253.326H209.406C209.772 253.326 210.065 253.624 210.065 253.985C210.065 254.347 209.772 254.644 209.406 254.644Z" fill="#896C4C"/>
</g>
<path d="M145.516 219.817H207.595C206.223 221.189 204.358 221.966 202.415 221.966H151.262C149.153 221.961 147.112 221.199 145.516 219.817Z" fill="#896C4C"/>
<path d="M108.277 196.031H95.6123H89.7778V184.177H93.796C97.243 184.177 100.646 184.933 103.771 186.388L106.744 187.775C108.653 188.663 109.654 190.792 109.117 192.833L108.277 196.031Z" fill="#DAAA78"/>
<path d="M89.7723 184.177H87.8291V196.031H89.7723V184.177Z" fill="#EEDBBD"/>
<path d="M87.8276 184.177H86.8364V196.031H87.8276V184.177Z" fill="white"/>
<path d="M236.838 218.119C237.097 217.86 237.097 217.44 236.838 217.186C236.58 216.928 236.165 216.928 235.906 217.186L230.374 222.718H232.244L236.838 218.119Z" fill="white"/>
<path d="M230.368 222.718L221.404 231.682C221.145 231.941 221.145 232.356 221.404 232.615C221.53 232.742 221.701 232.81 221.872 232.81C222.043 232.81 222.209 232.746 222.341 232.615L232.238 222.718H230.368Z" fill="white"/>
<path d="M212.189 221.958L212.19 221.958C213.994 220.154 216.391 219.161 218.945 219.161H255.162C255.995 219.161 256.669 218.487 256.669 217.654C256.669 216.821 255.995 216.147 255.162 216.147H218.945C215.591 216.147 212.432 217.454 210.061 219.825C208.257 221.629 205.86 222.621 203.306 222.621H166.073C165.24 222.621 164.566 223.295 164.566 224.128C164.566 224.961 165.24 225.635 166.073 225.635H203.306C206.66 225.635 209.819 224.323 212.189 221.958Z" fill="white" stroke="#F8F9FA" stroke-width="0.807144"/>
<path d="M99.0234 196.033H108.276L108.061 197.034H98.7402L99.0234 196.033Z" fill="#EEDBBD"/>
<path d="M266.656 159.743H210.213V216.048H266.656V159.743Z" fill="#DCC197"/>
<path opacity="0.6" d="M266.656 209.961H210.212V211.76H266.656V209.961Z" fill="#54422E"/>
<path d="M243.772 159.743H232.955V216.048H243.772V159.743Z" fill="#FF3838"/>
<path d="M265.125 165.413H245.71V175.235H265.125V165.413Z" fill="white"/>
<path d="M248.623 166.521H248.484V174.13H248.623V166.521Z" fill="black"/>
<path d="M249.18 166.52H249.042V174.129H249.18V166.52Z" fill="black"/>
<path d="M250.009 166.52H249.87V172.469H250.009V166.52Z" fill="black"/>
<path d="M261.521 166.519H261.382V172.468H261.521V166.519Z" fill="black"/>
<path d="M258.055 166.519H257.916V172.468H258.055V166.519Z" fill="black"/>
<path d="M258.607 166.52H258.469V172.469H258.607V166.52Z" fill="black"/>
<path d="M259.299 166.52H259.161V172.469H259.299V166.52Z" fill="black"/>
<path d="M261.797 166.519H261.659V172.468H261.797V166.519Z" fill="black"/>
<path d="M251.536 166.519H251.397V172.468H251.536V166.519Z" fill="black"/>
<path d="M260.548 166.52H260.41V172.469H260.548V166.52Z" fill="black"/>
<path d="M254.725 166.519H254.586V172.468H254.725V166.519Z" fill="black"/>
<path d="M260.132 166.52H259.854V172.469H260.132V166.52Z" fill="black"/>
<path d="M255.416 166.52H255.139V172.469H255.416V166.52Z" fill="black"/>
<path d="M261.243 166.519H260.965V172.468H261.243V166.519Z" fill="black"/>
<path d="M250.564 166.52H250.148V172.469H250.564V166.52Z" fill="black"/>
<path d="M252.506 166.519H251.952V172.468H252.506V166.519Z" fill="black"/>
<path d="M257.636 166.52H257.082V172.469H257.636V166.52Z" fill="black"/>
<path d="M252.92 166.52H252.781V172.469H252.92V166.52Z" fill="black"/>
<path d="M251.12 166.519H250.981V172.468H251.12V166.519Z" fill="black"/>
<path d="M253.613 166.52H253.475V172.469H253.613V166.52Z" fill="black"/>
<path d="M251.398 166.519H251.26V172.468H251.398V166.519Z" fill="black"/>
<path d="M254.307 166.52H254.168V172.469H254.307V166.52Z" fill="black"/>
<path d="M262.768 166.519H262.213V172.468H262.768V166.519Z" fill="black"/>
<path d="M255.971 166.52H255.833V174.129H255.971V166.52Z" fill="black"/>
<path d="M256.391 166.519H256.252V174.128H256.391V166.519Z" fill="black"/>
<path d="M249.87 173.99C250.008 173.99 250.147 173.99 250.286 173.99C250.425 173.99 250.563 173.852 250.563 173.852C250.563 173.713 250.425 173.575 250.147 173.575V173.437C250.425 173.437 250.425 173.298 250.425 173.298C250.425 173.16 250.286 173.16 250.286 173.16C250.147 173.16 250.147 173.16 250.008 173.298L249.87 173.16C250.008 173.021 250.008 173.021 250.147 173.021C250.286 173.021 250.425 173.16 250.425 173.298C250.425 173.437 250.286 173.575 250.286 173.575C250.425 173.575 250.563 173.713 250.563 173.852C250.563 173.99 250.425 174.129 250.147 174.129C250.008 174.129 250.008 174.129 249.87 173.99Z" fill="black"/>
<path d="M250.841 173.993C251.119 173.716 251.396 173.439 251.396 173.301C251.396 173.162 251.258 173.024 251.119 173.024C250.98 173.024 250.98 173.024 250.841 173.162L250.703 173.024C250.841 172.886 250.841 172.885 250.98 172.885C251.119 172.885 251.258 173.024 251.258 173.162C251.258 173.439 251.119 173.578 250.841 173.854H250.98H251.258V173.993H250.841Z" fill="black"/>
<path d="M251.675 173.993C251.814 173.993 251.952 173.993 252.091 173.993C252.23 173.993 252.369 173.854 252.369 173.716C252.369 173.578 252.23 173.439 252.091 173.439C251.952 173.439 251.952 173.439 251.952 173.439H251.814V172.885H252.23V173.024H251.814V173.301H251.952C252.091 173.301 252.23 173.439 252.23 173.716C252.23 173.993 252.091 174.131 251.814 174.131C251.814 174.131 251.675 174.131 251.675 173.993Z" fill="black"/>
<path d="M252.504 173.578C252.504 173.162 252.643 173.024 252.921 173.024C253.059 173.024 253.059 173.024 253.198 173.162L253.059 173.301L252.921 173.162C252.782 173.162 252.643 173.301 252.504 173.578C252.643 173.439 252.782 173.439 252.921 173.439C253.059 173.439 253.198 173.578 253.198 173.716C253.198 173.993 253.059 174.131 252.921 174.131C252.643 174.131 252.504 173.993 252.504 173.578ZM253.059 173.855C253.059 173.716 253.059 173.578 252.921 173.578C252.782 173.578 252.782 173.578 252.643 173.716C252.643 173.993 252.782 173.993 252.921 173.993C253.059 173.993 253.059 173.993 253.059 173.855Z" fill="black"/>
<path d="M253.896 173.162H253.341V173.024H254.035V173.162C253.757 173.439 253.757 173.716 253.757 174.131H253.618C253.618 173.716 253.757 173.439 253.896 173.162Z" fill="black"/>
<path d="M254.168 173.993C254.307 173.993 254.446 173.993 254.585 173.993C254.724 173.993 254.862 173.854 254.862 173.716C254.862 173.578 254.724 173.439 254.585 173.439C254.446 173.439 254.446 173.439 254.446 173.439H254.307V172.885H254.862V173.024H254.446V173.301H254.585C254.724 173.301 254.862 173.439 254.862 173.716C254.862 173.993 254.724 174.131 254.446 174.131C254.446 174.131 254.307 174.131 254.168 173.993Z" fill="black"/>
<path d="M263.185 166.519H263.046V174.128H263.185V166.519Z" fill="black"/>
<path d="M263.741 166.519H263.602V174.128H263.741V166.519Z" fill="black"/>
<path d="M257.221 173.576C257.221 173.161 257.359 173.022 257.637 173.022C257.915 173.022 258.053 173.161 258.053 173.576C258.053 173.991 257.915 174.13 257.637 174.13C257.359 174.13 257.221 173.991 257.221 173.576ZM257.776 173.576C257.776 173.299 257.637 173.161 257.498 173.161C257.359 173.161 257.221 173.299 257.221 173.576C257.221 173.853 257.359 173.991 257.498 173.991C257.637 173.991 257.776 173.853 257.776 173.576Z" fill="black"/>
<path d="M258.47 173.851H257.915V173.713L258.331 173.02H258.47V173.851L258.748 173.713V173.851H258.47L258.609 174.128H258.47V173.851ZM258.47 173.713V173.436C258.47 173.436 258.47 173.297 258.47 173.159C258.47 173.159 258.47 173.297 258.331 173.297L258.054 173.713H258.47Z" fill="black"/>
<path d="M259.441 173.159H258.886V173.02H259.58V173.159C259.302 173.436 259.302 173.713 259.302 174.128H259.163C259.163 173.713 259.302 173.436 259.441 173.159Z" fill="black"/>
<path d="M259.719 173.851C259.719 173.713 259.858 173.574 259.996 173.574C259.858 173.574 259.858 173.436 259.858 173.297C259.858 173.159 259.996 173.02 260.135 173.02C260.274 173.02 260.413 173.159 260.413 173.297C260.413 173.436 260.274 173.574 260.274 173.574C260.413 173.574 260.413 173.713 260.413 173.851C260.413 173.989 260.274 174.128 259.996 174.128C259.858 174.128 259.719 173.989 259.719 173.851ZM260.413 173.851C260.413 173.713 260.274 173.712 260.135 173.574C259.996 173.574 259.996 173.713 259.996 173.851C259.996 173.989 260.135 174.128 260.274 174.128C260.274 173.989 260.413 173.989 260.413 173.851ZM260.274 173.297C260.274 173.159 260.135 173.159 260.135 173.159C259.996 173.159 259.996 173.297 259.996 173.297C259.996 173.436 260.135 173.436 260.274 173.574C260.274 173.436 260.274 173.436 260.274 173.297Z" fill="black"/>
<path d="M260.688 173.574C260.688 173.159 260.826 173.02 261.104 173.02C261.243 173.02 261.243 173.02 261.381 173.159L261.243 173.297L261.104 173.159C260.965 173.159 260.826 173.297 260.688 173.574C260.826 173.436 260.965 173.436 261.104 173.436C261.243 173.436 261.381 173.574 261.381 173.713C261.381 173.989 261.243 174.128 261.104 174.128C260.826 174.128 260.688 173.989 260.688 173.574ZM261.243 173.851C261.243 173.713 261.243 173.574 261.104 173.574C260.965 173.574 260.965 173.574 260.826 173.713C260.826 173.989 260.965 173.989 261.104 173.989C261.104 173.989 261.243 173.989 261.243 173.851Z" fill="black"/>
<path d="M261.521 173.989C261.659 173.989 261.798 173.989 261.937 173.989C262.076 173.989 262.214 173.851 262.214 173.851C262.214 173.713 262.076 173.574 261.798 173.574V173.436C262.076 173.436 262.076 173.297 262.076 173.297C262.076 173.159 261.937 173.159 261.937 173.159C261.798 173.159 261.798 173.159 261.659 173.297L261.521 173.159C261.659 173.02 261.659 173.02 261.798 173.02C261.937 173.02 262.076 173.159 262.076 173.297C262.076 173.436 261.937 173.574 261.937 173.574C262.076 173.574 262.214 173.713 262.214 173.851C262.214 173.989 262.076 174.128 261.798 174.128C261.659 174.128 261.521 174.128 261.521 173.989Z" fill="black"/>
<path d="M247.236 173.99C247.375 173.99 247.375 173.99 247.514 173.99C247.653 173.99 247.791 173.852 247.791 173.575C247.653 173.713 247.653 173.713 247.514 173.713C247.375 173.713 247.236 173.575 247.236 173.437C247.236 173.16 247.375 173.021 247.514 173.021C247.791 173.021 247.93 173.16 247.93 173.575C247.93 173.99 247.791 174.129 247.514 174.129C247.375 174.129 247.236 174.129 247.236 173.99ZM247.791 173.437C247.791 173.16 247.653 173.16 247.514 173.16C247.375 173.16 247.375 173.298 247.375 173.437C247.375 173.575 247.375 173.713 247.514 173.713C247.653 173.575 247.653 173.575 247.791 173.437Z" fill="black"/>
<path opacity="0.6" d="M220.056 200.274H212.706V207.606H220.056V200.274Z" stroke="#54422E" stroke-width="1.50313" stroke-miterlimit="10"/>
<g opacity="0.6">
<g opacity="0.6">
<g opacity="0.6">
<path opacity="0.6" d="M215.066 204.978V206.777" stroke="#54422E" stroke-width="3.36219" stroke-miterlimit="10"/>
<g opacity="0.6">
<path opacity="0.6" d="M212.706 205.671L215.063 201.52L217.559 205.671H212.706Z" fill="#54422E"/>
</g>
</g>
</g>
<g opacity="0.6">
<g opacity="0.6">
<path opacity="0.6" d="M217.697 204.978V206.777" stroke="#54422E" stroke-width="3.36219" stroke-miterlimit="10"/>
<g opacity="0.6">
<path opacity="0.6" d="M215.342 205.671L217.699 201.52L220.196 205.671H215.342Z" fill="#54422E"/>
</g>
</g>
</g>
</g>
<path opacity="0.6" d="M220.052 181.736H212.702V189.068H220.052V181.736Z" stroke="#54422E" stroke-width="1.50313" stroke-miterlimit="10"/>
<g opacity="0.6">
<path opacity="0.6" d="M216.588 187.132C216.588 186.44 216.588 185.887 216.588 185.195C217.836 185.057 218.806 183.95 218.806 182.705H217.974L218.252 183.12L217.836 183.397L217.697 183.812L217.42 183.397L217.697 183.12L217.281 182.705H213.953C213.953 183.95 214.923 185.057 216.172 185.195C216.172 185.749 216.172 186.44 216.172 187.132V187.27L214.923 188.101H217.974L216.726 187.27C216.588 187.27 216.588 187.27 216.588 187.132C216.588 187.27 216.588 187.27 216.588 187.132Z" fill="#54422E"/>
</g>
<path opacity="0.6" d="M220.054 191.005H212.704V198.337H220.054V191.005Z" stroke="#54422E" stroke-width="1.50313" stroke-miterlimit="10"/>
<g opacity="0.6">
<g opacity="0.6">
<g opacity="0.6">
<path opacity="0.6" d="M215.068 193.638C215.068 193.638 215.901 192.115 216.456 192.115C217.011 192.115 217.705 193.638 217.705 193.638" stroke="#54422E" stroke-width="3.00626" stroke-miterlimit="10"/>
<g opacity="0.6">
<path opacity="0.6" d="M215.76 194.049L218.949 196.124L219.227 192.251L215.76 194.049Z" fill="#54422E"/>
</g>
</g>
</g>
<g opacity="0.6">
<g opacity="0.6">
<path opacity="0.6" d="M218.396 194.603C218.396 194.603 219.229 196.125 219.09 196.541C218.813 196.956 217.147 196.818 217.147 196.818" stroke="#54422E" stroke-width="3.00626" stroke-miterlimit="10"/>
<g opacity="0.6">
<path opacity="0.6" d="M217.699 195.017L214.232 196.678L217.422 198.891L217.699 195.017Z" fill="#54422E"/>
</g>
</g>
</g>
<g opacity="0.6">
<g opacity="0.6">
<path opacity="0.6" d="M215.759 196.956C215.759 196.956 214.094 196.956 213.816 196.541C213.538 196.125 214.51 194.741 214.51 194.741" stroke="#54422E" stroke-width="3.00626" stroke-miterlimit="10"/>
<g opacity="0.6">
<path opacity="0.6" d="M215.758 196.265L216.035 192.391L212.568 194.051L215.758 196.265Z" fill="#54422E"/>
</g>
</g>
</g>
</g>
<path d="M236.598 213.374V213.871H233.533V212.142H233.956V213.374H234.914V212.219H235.34V213.374H236.598ZM234.958 211.085V210.737C234.958 210.504 234.915 210.334 234.828 210.23C234.742 210.125 234.613 210.072 234.443 210.072C234.269 210.072 234.145 210.129 234.069 210.242C233.994 210.355 233.956 210.526 233.956 210.754V211.085H234.958ZM235.373 211.085H236.598V211.586H233.533V210.72C233.533 210.325 233.607 210.032 233.755 209.842C233.903 209.652 234.127 209.557 234.426 209.557C234.807 209.557 235.079 209.755 235.241 210.152L236.598 209.286V209.856L235.373 210.59V211.085ZM236.598 206.938L235.747 207.244V208.416L236.598 208.716V209.244L233.52 208.098V207.553L236.598 206.406V206.938ZM235.315 207.376L234.48 207.664C234.424 207.685 234.336 207.714 234.216 207.752C234.096 207.788 234.008 207.813 233.952 207.827C234.124 207.865 234.312 207.92 234.516 207.993L235.315 208.27V207.376ZM234.935 204.748V203.62H236.474C236.534 203.804 236.577 203.982 236.602 204.152C236.627 204.321 236.64 204.504 236.64 204.701C236.64 205.165 236.503 205.523 236.229 205.775C235.953 206.026 235.566 206.152 235.065 206.152C234.572 206.152 234.186 206.01 233.908 205.727C233.628 205.443 233.489 205.052 233.489 204.555C233.489 204.235 233.55 203.931 233.673 203.645L234.09 203.821C233.976 204.07 233.918 204.319 233.918 204.567C233.918 204.894 234.021 205.153 234.227 205.343C234.432 205.533 234.713 205.628 235.069 205.628C235.444 205.628 235.729 205.543 235.925 205.372C236.119 205.2 236.216 204.954 236.216 204.632C236.216 204.47 236.196 204.297 236.155 204.112H235.365V204.748H234.935ZM242.598 213.871H239.533V213.37H242.598V213.871ZM242.598 212.559H239.533V212.058H242.168V210.76H242.598V212.559ZM242.598 208.498V210.232H239.533V208.498H239.956V209.731H240.791V208.576H241.21V209.731H242.172V208.498H242.598Z" fill="#F9FAFC"/>
<path d="M236.598 193.989V194.486H233.533V192.757H233.956V193.989H234.914V192.834H235.34V193.989H236.598ZM234.958 191.7V191.352C234.958 191.119 234.915 190.949 234.828 190.845C234.742 190.74 234.613 190.687 234.443 190.687C234.269 190.687 234.145 190.744 234.069 190.857C233.994 190.97 233.956 191.141 233.956 191.369V191.7H234.958ZM235.373 191.7H236.598V192.201H233.533V191.335C233.533 190.94 233.607 190.647 233.755 190.457C233.903 190.267 234.127 190.172 234.426 190.172C234.807 190.172 235.079 190.37 235.241 190.767L236.598 189.901V190.471L235.373 191.205V191.7ZM236.598 187.553L235.747 187.859V189.031L236.598 189.331V189.859L233.52 188.713V188.168L236.598 187.021V187.553ZM235.315 187.991L234.48 188.279C234.424 188.3 234.336 188.329 234.216 188.367C234.096 188.403 234.008 188.428 233.952 188.442C234.124 188.48 234.312 188.535 234.516 188.608L235.315 188.885V187.991ZM234.935 185.363V184.235H236.474C236.534 184.419 236.577 184.597 236.602 184.767C236.627 184.936 236.64 185.119 236.64 185.316C236.64 185.78 236.503 186.138 236.229 186.39C235.953 186.641 235.566 186.767 235.065 186.767C234.572 186.767 234.186 186.625 233.908 186.342C233.628 186.058 233.489 185.667 233.489 185.17C233.489 184.85 233.55 184.546 233.673 184.26L234.09 184.436C233.976 184.685 233.918 184.934 233.918 185.182C233.918 185.509 234.021 185.768 234.227 185.958C234.432 186.148 234.713 186.243 235.069 186.243C235.444 186.243 235.729 186.158 235.925 185.987C236.119 185.815 236.216 185.569 236.216 185.247C236.216 185.085 236.196 184.912 236.155 184.727H235.365V185.363H234.935ZM242.598 194.486H239.533V193.985H242.598V194.486ZM242.598 193.174H239.533V192.673H242.168V191.375H242.598V193.174ZM242.598 189.113V190.847H239.533V189.113H239.956V190.346H240.791V189.191H241.21V190.346H242.172V189.113H242.598Z" fill="#F9FAFC"/>
<path d="M236.598 174.953V175.45H233.533V173.72H233.956V174.953H234.914V173.798H235.34V174.953H236.598ZM234.958 172.664V172.316C234.958 172.082 234.915 171.913 234.828 171.808C234.742 171.703 234.613 171.651 234.443 171.651C234.269 171.651 234.145 171.708 234.069 171.821C233.994 171.934 233.956 172.105 233.956 172.332V172.664H234.958ZM235.373 172.664H236.598V173.165H233.533V172.299C233.533 171.903 233.607 171.61 233.755 171.42C233.903 171.23 234.127 171.135 234.426 171.135C234.807 171.135 235.079 171.334 235.241 171.731L236.598 170.865V171.435L235.373 172.169V172.664ZM236.598 168.517L235.747 168.823V169.995L236.598 170.295V170.823L233.52 169.676V169.131L236.598 167.984V168.517ZM235.315 168.955L234.48 169.242C234.424 169.263 234.336 169.293 234.216 169.33C234.096 169.367 234.008 169.392 233.952 169.406C234.124 169.444 234.312 169.499 234.516 169.571L235.315 169.848V168.955ZM234.935 166.326V165.198H236.474C236.534 165.383 236.577 165.56 236.602 165.731C236.627 165.9 236.64 166.083 236.64 166.28C236.64 166.744 236.503 167.102 236.229 167.353C235.953 167.605 235.566 167.731 235.065 167.731C234.572 167.731 234.186 167.589 233.908 167.305C233.628 167.022 233.489 166.631 233.489 166.133C233.489 165.813 233.55 165.51 233.673 165.224L234.09 165.4C233.976 165.648 233.918 165.897 233.918 166.146C233.918 166.473 234.021 166.732 234.227 166.922C234.432 167.112 234.713 167.207 235.069 167.207C235.444 167.207 235.729 167.121 235.925 166.951C236.119 166.779 236.216 166.532 236.216 166.211C236.216 166.049 236.196 165.876 236.155 165.691H235.365V166.326H234.935ZM242.598 175.45H239.533V174.949H242.598V175.45ZM242.598 174.137H239.533V173.636H242.168V172.339H242.598V174.137ZM242.598 170.077V171.81H239.533V170.077H239.956V171.309H240.791V170.154H241.21V171.309H242.172V170.077H242.598Z" fill="#F9FAFC"/>
<path d="M156.597 199.375L125.477 208.675C118.593 210.731 115.493 218.728 119.189 224.89L140.51 260.439L152.623 255.063L135.217 221.965L170.664 214.559C177.519 213.123 181.561 205.995 179.262 199.379H156.597V199.375Z" fill="#455B66"/>
<path d="M151.048 257.537L150.14 256.16L143.256 259.212L144.877 262.161L152.547 260.008C152.078 259.168 151.585 258.343 151.048 257.537Z" fill="#F2C9AD"/>
<path d="M149.157 263.474L148.518 265.104L149.372 264.504C149.709 264.265 150.114 264.138 150.529 264.138H154.548C153.962 262.722 153.298 261.345 152.546 260.007L144.875 262.16L145.339 263.005H148.835C149.079 263.005 149.245 263.249 149.157 263.474Z" fill="white"/>
<path d="M140.336 270.504H156.594L156.296 269.357C155.837 267.575 155.247 265.837 154.544 264.143H150.525C150.11 264.143 149.705 264.27 149.368 264.509L148.514 265.109L149.153 263.479C149.241 263.254 149.075 263.01 148.831 263.01H145.335L142.753 265.436C141.581 266.535 140.038 267.15 138.432 267.15H136.669C134.946 267.15 133.442 268.112 132.666 269.533L136.02 270.128C137.45 270.377 138.891 270.504 140.336 270.504Z" fill="#36454A"/>
<path d="M140.335 270.505C138.89 270.505 137.45 270.378 136.024 270.124L132.67 269.529C132.343 270.129 132.143 270.818 132.113 271.545L137.235 272.009C138.045 272.082 138.856 272.121 139.671 272.121H157.004L156.589 270.505H140.335Z" fill="white"/>
<path d="M150.139 256.16L143.26 259.212L144.002 260.564L151.496 258.23L150.139 256.16Z" fill="#E6B492"/>
<path d="M149.69 144.311L148.748 138.965C148.43 137.178 146.878 135.87 145.062 135.87H139.701L140.179 138.408C140.526 140.244 140.492 142.134 140.082 143.96L139.847 144.995C139.75 145.434 140.082 145.854 140.531 145.854H141.615C143.001 150.863 149.09 153.002 153.318 149.75L159.968 144.643L156.438 147.109C153.845 148.925 150.242 147.431 149.69 144.311Z" fill="#F2C9AD"/>
<path d="M139.355 134.044L139.702 135.875H145.063C146.879 135.875 148.436 137.178 148.749 138.97L149.691 144.316C150.243 147.436 153.841 148.93 156.438 147.114L159.968 144.648V134.044H139.355Z" fill="#EBA58E"/>
<path d="M159.974 144.648L153.324 149.755L154.207 152.294L159.974 144.648Z" fill="#422C4F"/>
<path d="M164.628 151.702L159.975 144.647L154.209 152.292L155.718 156.623L164.628 151.702Z" fill="#F2C9AD"/>
<path d="M143.699 140.093C143.802 140.703 143.616 141.245 143.284 141.299C142.952 141.353 142.605 140.903 142.503 140.288C142.4 139.678 142.586 139.136 142.918 139.082C143.25 139.029 143.596 139.478 143.699 140.093Z" fill="#422C4F"/>
<path d="M142.125 137.939C142.677 137.626 143.297 137.67 143.819 138.017C144.337 138.358 144.815 137.528 144.302 137.187C143.497 136.654 142.471 136.635 141.637 137.109C141.104 137.411 141.588 138.241 142.125 137.939Z" fill="#422C4F"/>
<path d="M143.432 143.827L144.506 144.198C146.079 144.74 147.783 144.793 149.384 144.344L152.064 143.587L151.435 142.333L149.384 142.904C147.783 143.348 146.079 143.299 144.506 142.757L143.432 142.386C142.48 142.059 141.509 141.805 140.518 141.635L140.132 141.566L139.78 142.963L140.518 143.075C141.504 143.246 142.48 143.5 143.432 143.827Z" fill="white"/>
<path d="M152.064 143.588L149.383 144.345C147.782 144.789 146.078 144.741 144.506 144.199L143.432 143.828C142.48 143.5 141.508 143.247 140.517 143.076L139.78 142.963L139.662 143.422C139.462 144.223 139.506 145.063 139.784 145.834L140.385 147.494C141.44 150.404 144.135 152.406 147.225 152.577C149.149 152.684 151.048 152.064 152.542 150.844L154.778 149.018L152.064 143.588Z" fill="#7EA9CD"/>
<path opacity="0.3" d="M149.441 142.89L149.69 144.315C150.09 146.6 152.131 148.006 154.211 147.884L151.433 142.333L149.441 142.89Z" fill="#422C4F"/>
<path d="M153.322 145.82L151.291 151.611C151.223 151.801 151.379 151.996 151.584 151.972C153.103 151.791 154.445 150.903 155.212 149.58L157.79 145.112L153.322 145.82Z" fill="#454F6B"/>
<path d="M151.335 136.973L152.453 143.315C152.643 144.399 153.771 145.044 154.801 144.663L165.831 140.581V132.686C165.831 124.577 159.254 118 151.144 118C143.181 118 136.707 124.337 136.473 132.242H145.7C148.474 132.242 150.851 134.239 151.335 136.973Z" fill="#9FB78B"/>
<path d="M154.803 144.662C153.773 145.043 152.645 144.398 152.455 143.314L151.337 136.972C150.853 134.238 148.476 132.241 145.697 132.241H136.47C136.465 132.388 136.46 132.534 136.46 132.686V134.043H145.209C147.348 134.043 149.174 135.576 149.545 137.68L150.658 143.974C151.053 146.22 153.451 147.504 155.545 146.586L164.783 142.533C165.422 142.25 165.837 141.62 165.837 140.922V140.575L154.803 144.662Z" fill="#809B68"/>
<path d="M153.901 195.986L156.6 184.176L152.724 162.937C152.26 160.408 153.466 157.869 155.717 156.624L164.627 151.703C165.794 151.058 167.239 151.205 168.25 152.074C175.593 158.367 180.187 167.278 181.052 176.911L182.731 195.571C182.917 197.612 181.305 199.375 179.255 199.375H156.6C154.818 199.375 153.5 197.719 153.901 195.986Z" fill="#9FB78B"/>
<path d="M167.336 160.53L167.41 160.818C168.347 164.426 167.659 168.264 165.53 171.325L156.595 184.175L154.779 174.22L167.336 160.53Z" fill="#809B68"/>
<path d="M154.882 154.226L152.431 155.49L154.882 158.137L155.717 156.623L154.882 154.226Z" fill="#9FB78B"/>
<path d="M152.432 155.49L151.875 160.006L154.399 157.614L152.432 155.49Z" fill="#567033"/>
<path d="M166.072 151.302L163.474 149.013L154.208 154.081L155.472 159.436L166.072 151.302Z" fill="#D0E2C3"/>
<path d="M113.747 188.9H106.834C105.545 188.9 104.505 189.945 104.505 191.229V195.55C104.505 196.839 105.55 197.879 106.834 197.879H112.429V196.16C114.113 196.16 115.734 195.491 116.926 194.3L117.765 193.46L113.747 188.9Z" fill="#F2C9AD"/>
<path d="M113.746 188.899L117.764 193.46L135.023 189.446L132.636 183.06L113.746 188.899Z" fill="#F2C9AD"/>
<path d="M132.637 183.06L131.797 183.324L131.524 190.262L135.025 189.446L132.637 183.06Z" fill="#EBA58E"/>
<path d="M165.685 158.366C163.409 156.579 160.128 156.901 158.239 159.089L140.335 179.858L137.098 180.947L140.106 188.988L141.805 188.622C144.49 188.041 146.941 186.664 148.835 184.672L166.266 166.359C168.468 164.044 168.199 160.339 165.685 158.366Z" fill="#9FB78B"/>
<path d="M140.206 189.246L140.108 188.992L137.1 180.951L136.803 180.155C136.632 179.701 136.124 179.466 135.67 179.637L132.711 180.746C132.257 180.916 132.023 181.424 132.194 181.878L132.433 182.523L135.245 190.042L135.592 190.969C135.763 191.423 136.27 191.658 136.724 191.487L139.683 190.378C140.147 190.208 140.377 189.7 140.206 189.246Z" fill="#809B68"/>
<path d="M159.373 159.952C161.038 158.019 163.816 157.501 166.067 158.697C165.945 158.58 165.818 158.468 165.681 158.36C163.406 156.573 160.125 156.896 158.236 159.083L140.332 179.853L137.095 180.942L137.578 182.23L141.211 181.005L159.373 159.952Z" fill="#D0E2C3"/>
<path d="M114.702 196.15C115.23 195.188 116.431 194.836 117.392 195.364L117.397 195.368C117.358 195.344 117.324 195.31 117.28 195.29L112.847 192.864C111.885 192.336 110.684 192.688 110.157 193.65C109.629 194.612 109.981 195.813 110.943 196.34L115.366 198.767C114.507 198.205 114.199 197.067 114.702 196.15Z" fill="#422C4F"/>
<path d="M116.328 199.012C117.026 199.012 117.709 198.641 118.066 197.981C118.569 197.064 118.261 195.931 117.397 195.369L117.392 195.364C116.43 194.837 115.229 195.189 114.702 196.151C114.199 197.068 114.506 198.201 115.371 198.763L115.375 198.767C115.683 198.933 116.005 199.012 116.328 199.012Z" fill="#495375"/>
<path d="M240.246 296.935C240.887 294.849 241.222 293.959 245.512 293.597C246.684 293.497 247.867 293.89 249.036 293.755C250.205 293.624 251.453 292.807 251.471 291.631C251.488 290.369 250.112 289.248 250.519 288.055C250.822 287.176 251.929 286.879 252.857 286.934C253.785 286.989 254.743 287.251 255.626 286.951C256.706 286.586 257.371 285.434 257.475 284.296C257.581 283.161 257.233 282.034 256.84 280.965C256.447 279.892 256.002 278.823 255.895 277.685C255.674 275.268 257.064 272.947 258.882 271.34C261.389 269.122 264.792 267.953 268.131 268.164C271.396 268.367 275.404 269.595 277.273 272.468C278.369 274.154 278.766 276.278 278.355 278.247C278.183 279.078 277.869 279.934 278.1 280.751C278.435 281.948 279.745 282.534 280.901 282.989C282.056 283.444 283.356 284.093 283.608 285.31C283.835 286.413 283.035 287.503 282.063 288.065C281.09 288.627 279.949 288.814 278.876 289.155C277.804 289.496 276.711 290.079 276.235 291.1C275.828 291.972 275.948 293.011 275.593 293.904C274.997 295.418 273.159 296.131 271.545 295.942C269.931 295.749 268.496 294.859 267.141 293.955C266.468 293.507 265.789 293.045 265.02 292.797C264.251 292.548 263.361 292.548 262.682 292.986C261.834 293.535 261.389 294.7 260.399 294.907C259.44 295.107 258.609 294.29 257.881 293.635C257.154 292.979 255.985 292.435 255.271 293.1C254.957 293.393 254.847 293.835 254.654 294.221C253.898 295.735 251.936 296.235 250.257 296.049C248.574 295.859 246.981 295.169 245.298 294.997C243.615 294.821 240.663 295.573 240.246 296.935Z" fill="#E0E2E1"/>
<path d="M281.544 292.5C282.993 292.027 284.696 292.458 285.741 293.569C286.41 294.276 286.789 295.421 286.231 296.217C285.762 296.886 284.813 297.038 284.013 296.873C283.213 296.707 282.489 296.297 281.71 296.052C280.93 295.807 280.013 295.748 279.361 296.241C279.199 296.362 279.058 296.517 278.875 296.6C277.73 297.121 278.996 294.948 279.141 294.652C279.634 293.655 280.479 292.848 281.544 292.5Z" fill="#E0E2E1"/>
<path d="M292.797 280.485C293.531 280.312 294.414 280.519 294.804 281.164C295.262 281.923 294.845 282.968 294.124 283.478C293.228 284.113 290.089 284.792 289.431 283.419C288.903 282.326 291.859 280.705 292.797 280.485Z" fill="#E0E2E1"/>
<path d="M282.127 278.579C282.292 278.883 282.627 279.066 282.965 279.128C283.303 279.193 283.654 279.155 283.996 279.117C284.603 279.052 285.227 278.98 285.755 278.669C286.282 278.362 286.682 277.752 286.551 277.159C286.062 274.893 281.034 276.562 282.127 278.579Z" fill="#E0E2E1"/>
<path d="M252.614 266.378C252.072 266.619 251.593 267.136 251.624 267.729C251.648 268.171 251.955 268.56 252.338 268.781C252.721 269.002 253.172 269.074 253.614 269.098C254.166 269.129 254.773 269.071 255.183 268.702C255.448 268.464 255.597 268.126 255.797 267.833C256.159 267.305 256.707 266.912 257.318 266.736C257.68 266.633 258.228 266.529 258.242 266.057C258.252 265.581 257.614 265.246 257.214 265.16C256.842 265.077 256.507 265.212 256.166 265.36C255.645 265.584 255.135 265.805 254.579 265.936C253.928 266.081 253.234 266.102 252.614 266.378Z" fill="#E0E2E1"/>
<path opacity="0.5" d="M36.9703 170.185C37.1326 169.558 37.2231 168.903 37.2231 168.226C37.2231 163.966 33.7718 160.512 29.5153 160.512C25.2589 160.512 21.8076 163.963 21.8076 168.223C21.8076 168.9 21.895 169.558 22.0604 170.182C22.0604 170.185 22.0604 170.185 22.0635 170.189C22.2632 170.947 22.5721 171.655 22.9778 172.304C24.3633 175.359 26.2294 178.857 29.5153 184.215C32.4986 179.104 34.8858 174.835 36.1527 172.142C36.5085 171.54 36.7862 170.884 36.9672 170.192C36.9672 170.189 36.9672 170.185 36.9703 170.185Z" fill="#9FB78B"/>
<path d="M33.1711 168.226C33.1735 166.205 31.5381 164.564 29.5182 164.562C27.4984 164.559 25.859 166.196 25.8565 168.218C25.854 170.239 27.4895 171.88 29.5093 171.882C31.5292 171.885 33.1686 170.248 33.1711 168.226Z" fill="#F2F6E8"/>
<path opacity="0.5" d="M239.852 52.7242C240.049 51.964 240.159 51.1698 240.159 50.3491C240.159 45.1867 235.976 41 230.817 41C225.658 41 221.476 45.1867 221.476 50.3491C221.476 51.1698 221.581 51.9678 221.782 52.7242C221.782 52.7279 221.782 52.7279 221.786 52.7317C222.028 53.6507 222.402 54.5092 222.894 55.2959C224.573 58.9985 226.835 63.2381 230.817 69.7317C234.433 63.5368 237.326 58.3631 238.861 55.0992C239.293 54.3693 239.629 53.5751 239.848 52.7355C239.852 52.7317 239.852 52.7279 239.852 52.7242Z" fill="#9FB78B"/>
<path d="M230.822 54.7858C233.27 54.7827 235.252 52.7941 235.249 50.344C235.246 47.8939 233.259 45.9102 230.811 45.9132C228.363 45.9163 226.381 47.9049 226.384 50.355C226.387 52.8051 228.374 54.7888 230.822 54.7858Z" fill="#F2F6E8"/>
</svg>
